# xmcd
#
# Track frame offsets: 
#        150
#        13317
#        23337
#        35462
#        50709
#        64068
#        78999
#        91782
#        107060
#        119650
#        132983
#        145914
#        157104
#        169954
#        181251
#        192701
#        204301
#        214394
#        227341
#        241133
#        254231
#        267401
#        281984
#        294784
#
# Disc length: 4085 seconds
#
# Revision: 0
# Processed by: cddbd v1.5.2PL0 Copyright (c) Steve Scherf et al.
# Submitted via: ExactAudioCopy v0.95b4
#
DISCID=6b0ff318
DTITLE=Muddy Waters, Bo Didley, Howlin' Wolf - Kings Of Blues
DYEAR=1900
DGENRE=Blues
TTITLE0=Luisiana Blues
TTITLE1=Evans Shuffle
TTITLE2=Long DIstance Call
TTITLE3=Honey Bee
TTITLE4=She Moves Me
TTITLE5=Still a Fool
TTITLE6=Stuff You GOtta Watch
TTITLE7=Standing Around Crying
TTITLE8=Bo Didley
TTITLE9=I'm a Man
TTITLE10=You Don't Leve Me
TTITLE11=Diddley Daddy
TTITLE12=Pretty Thing
TTITLE13=Bring it To Jerome
TTITLE14=Diddy Wah Diddy
TTITLE15=I'm Looking for a Women
TTITLE16=All Night Boogie
TTITLE17=I'm the WOlf
TTITLE18=Rockin' Daddy
TTITLE19=Baby How Long
TTITLE20=Evil
TTITLE21=I'll be Around
TTITLE22=Forty Four
TTITLE23=Who Will be Next
EXTD=
EXTT0=
EXTT1=
EXTT2=
EXTT3=
EXTT4=
EXTT5=
EXTT6=
EXTT7=
EXTT8=
EXTT9=
EXTT10=
EXTT11=
EXTT12=
EXTT13=
EXTT14=
EXTT15=
EXTT16=
EXTT17=
EXTT18=
EXTT19=
EXTT20=
EXTT21=
EXTT22=
EXTT23=
PLAYORDER=
